<svg xmlns="http://www.w3.org/2000/svg" xmlns:xlink="http://www.w3.org/1999/xlink" width="910" height="515.91"><rect width="910" height="515.91" rx="5" ry="5" class="a"/><svg y="0%" x="0%"><circle cx="20" cy="20" r="6" fill="#ff5f58"/><circle cx="40" cy="20" r="6" fill="#ffbd2e"/><circle cx="60" cy="20" r="6" fill="#18c132"/></svg><svg height="455.91" viewBox="0 0 87 45.591" width="870" x="15" xmlns="http://www.w3.org/2000/svg" xmlns:xlink="http://www.w3.org/1999/xlink" y="50"><style>@keyframes o{0%{transform:translateX(0)}.14%{transform:translateX(-87px)}5.03%{transform:translateX(-174px)}6.1%{transform:translateX(-261px)}6.86%{transform:translateX(-348px)}10.39%{transform:translateX(-435px)}11.07%{transform:translateX(-522px)}12.34%{transform:translateX(-609px)}14.79%{transform:translateX(-696px)}16.76%{transform:translateX(-870px)}16.78%{transform:translateX(-957px)}17.17%{transform:translateX(-1044px)}21.81%{transform:translateX(-1131px)}22.63%{transform:translateX(-1218px)}23.28%{transform:translateX(-1305px)}25.53%{transform:translateX(-1392px)}26.39%{transform:translateX(-1479px)}27.82%{transform:translateX(-1566px)}30.82%{transform:translateX(-1740px)}30.91%{transform:translateX(-1827px)}30.92%{transform:translateX(-1914px)}30.98%{transform:translateX(-2001px)}34.33%{transform:translateX(-2088px)}35.08%{transform:translateX(-2175px)}35.65%{transform:translateX(-2262px)}39.55%{transform:translateX(-2436px)}39.59%{transform:translateX(-2523px)}39.6%{transform:translateX(-2610px)}39.7%{transform:translateX(-2697px)}42.45%{transform:translateX(-2784px)}43.48%{transform:translateX(-2871px)}45.13%{transform:translateX(-2958px)}49.63%{transform:translateX(-3045px)}51.13%{transform:translateX(-3219px)}52.85%{transform:translateX(-3306px)}58.24%{transform:translateX(-3393px)}59.51%{transform:translateX(-3567px)}59.52%{transform:translateX(-3828px)}59.73%{transform:translateX(-3915px)}59.88%{transform:translateX(-4002px)}60.1%{transform:translateX(-4089px)}60.7%{transform:translateX(-4176px)}62.06%{transform:translateX(-4263px)}63.78%{transform:translateX(-4350px)}67.07%{transform:translateX(-4437px)}69.93%{transform:translateX(-4524px)}69.94%{transform:translateX(-4611px)}70.9%{transform:translateX(-4698px)}70.91%{transform:translateX(-5046px)}71.28%{transform:translateX(-5133px)}71.39%{transform:translateX(-5220px)}71.97%{transform:translateX(-5307px)}72.99%{transform:translateX(-5394px)}74.49%{transform:translateX(-5481px)}77.21%{transform:translateX(-5568px)}79.98%{transform:translateX(-5655px)}83.32%{transform:translateX(-5742px)}83.36%{transform:translateX(-5829px)}83.37%{transform:translateX(-6003px)}84.28%{transform:translateX(-6177px)}84.69%{transform:translateX(-6264px)}94.13%{transform:translateX(-6351px)}96.1%{transform:translateX(-6438px)}97.21%{transform:translateX(-6525px)}98.15%{transform:translateX(-6612px)}to{transform:translateX(-6786px)}}.a{fill:#282d35}.f{fill:#a8cc8c;font-weight:700;white-space:pre}.g{fill:#b9c0cb}.g,.h,.i,.j,.k{white-space:pre}.h{fill:#71bef2;font-weight:700}.i,.j,.k{fill:#5f87af}.j,.k{fill:#b9c0cb;font-weight:700}.k{fill:#ffaf00}</style><g font-family="Monaco,Consolas,Menlo,'Bitstream Vera Sans Mono','Powerline Symbols',monospace" font-size="1.67"><defs><symbol id="20"><text x="3.006" y="1.67" class="g">720p</text><text x="8.016" y="1.67" class="g">HD</text></symbol><symbol id="1"><text y="1.67" class="f">xvishaldongre@dell</text><text x="18.036" y="1.67" class="g">:</text><text x="19.038" y="1.67" class="h">~</text><text x="20.04" y="1.67" class="g">$</text></symbol><symbol id="3"><text y="1.67" class="i">?</text><text x="2.004" y="1.67" class="j">Select:</text><text x="11.022" y="1.67" class="g">(Use</text><text x="16.032" y="1.67" class="g">arrow</text><text x="22.044" y="1.67" class="g">keys)</text></symbol><symbol id="4"><text x="1.002" y="1.67" class="k">❯</text><text x="3.006" y="1.67" class="g">Link</text><text x="8.016" y="1.67" class="g">form</text><text x="13.026" y="1.67" class="g">clipboard</text></symbol><symbol id="5"><text x="3.006" y="1.67" class="g">Enter</text><text x="9.018" y="1.67" class="g">other</text><text x="15.03" y="1.67" class="g">link</text></symbol><symbol id="6"><text x="3.006" y="1.67" class="g">Search</text><text x="10.02" y="1.67" class="g">Video</text></symbol><symbol id="7"><text x="3.006" y="1.67" class="g">Search</text><text x="10.02" y="1.67" class="g">Playlist</text></symbol><symbol id="8"><text x="3.006" y="1.67" class="g">Link</text><text x="8.016" y="1.67" class="g">form</text><text x="13.026" y="1.67" class="g">clipboard</text></symbol><symbol id="9"><text x="1.002" y="1.67" class="k">❯</text><text x="3.006" y="1.67" class="g">Enter</text><text x="9.018" y="1.67" class="g">other</text><text x="15.03" y="1.67" class="g">link</text></symbol><symbol id="10"><text x="1.002" y="1.67" class="k">❯</text><text x="3.006" y="1.67" class="g">Search</text><text x="10.02" y="1.67" class="g">Video</text></symbol><symbol id="11"><text y="1.67" class="i">?</text><text x="2.004" y="1.67" class="j">Select:</text><text x="11.022" y="1.67" class="k">Link</text><text x="16.032" y="1.67" class="k">form</text><text x="21.042" y="1.67" class="k">clipboard</text></symbol><symbol id="12"><text y="1.67" class="i">?</text><text x="2.004" y="1.67" class="j">What</text><text x="7.014" y="1.67" class="j">do</text><text x="10.02" y="1.67" class="j">you</text><text x="14.028" y="1.67" class="j">want?</text><text x="21.042" y="1.67" class="g">(Use</text><text x="26.052" y="1.67" class="g">arrow</text><text x="32.064" y="1.67" class="g">keys)</text></symbol><symbol id="13"><text x="1.002" y="1.67" class="k">❯</text><text x="3.006" y="1.67" class="g">Video</text><text x="9.018" y="1.67" class="g">+</text><text x="11.022" y="1.67" class="g">Audio</text></symbol><symbol id="14"><text x="3.006" y="1.67" class="g">Audio</text><text x="9.018" y="1.67" class="g">only</text></symbol><symbol id="15"><text x="3.006" y="1.67" class="g">Video</text><text x="9.018" y="1.67" class="g">(Really!</text><text x="18.036" y="1.67" class="g">Without</text><text x="26.052" y="1.67" class="g">audio)</text></symbol><symbol id="16"><text x="3.006" y="1.67" class="g">Video</text><text x="9.018" y="1.67" class="g">+</text><text x="11.022" y="1.67" class="g">Audio</text></symbol><symbol id="17"><text y="1.67" class="i">?</text><text x="2.004" y="1.67" class="j">What</text><text x="7.014" y="1.67" class="j">do</text><text x="10.02" y="1.67" class="j">you</text><text x="14.028" y="1.67" class="j">want?</text><text x="21.042" y="1.67" class="k">Video</text><text x="27.054" y="1.67" class="k">+</text><text x="29.058" y="1.67" class="k">Audio</text></symbol><symbol id="18"><text y="1.67" class="i">?</text><text x="2.004" y="1.67" class="j">Choose</text><text x="9.018" y="1.67" class="j">Quality</text><text x="18.036" y="1.67" class="g">(Use</text><text x="23.046" y="1.67" class="g">arrow</text><text x="29.058" y="1.67" class="g">keys)</text></symbol><symbol id="19"><text x="1.002" y="1.67" class="k">❯</text><text x="3.006" y="1.67" class="g">1080p</text><text x="9.018" y="1.67" class="g">HD</text></symbol><symbol id="2"><text y="1.67" class="f">xvishaldongre@dell</text><text x="18.036" y="1.67" class="g">:</text><text x="19.038" y="1.67" class="h">~</text><text x="20.04" y="1.67" class="g">$</text><text x="22.044" y="1.67" class="g">you-dl</text></symbol><symbol id="21"><text x="3.006" y="1.67" class="g">480p</text></symbol><symbol id="22"><text x="3.006" y="1.67" class="g">360p</text></symbol><symbol id="23"><text x="3.006" y="1.67" class="g">240p</text></symbol><symbol id="24"><text x="3.006" y="1.67" class="g">144p</text></symbol><symbol id="25"><text x="3.006" y="1.67" class="g">1080p</text><text x="9.018" y="1.67" class="g">HD</text></symbol><symbol id="26"><text y="1.67" class="i">?</text><text x="2.004" y="1.67" class="j">Choose</text><text x="9.018" y="1.67" class="j">Quality</text><text x="18.036" y="1.67" class="k">240p</text></symbol><symbol id="27"><text y="1.67" class="g">[youtube]</text><text x="10.02" y="1.67" class="g">1-xGerv5FOk:</text><text x="23.046" y="1.67" class="g">Downloading</text><text x="35.07" y="1.67" class="g">webpage</text></symbol><symbol id="28"><text y="1.67" style="white-space:pre" fill="#dbab79">WARNING:</text><text x="9.018" y="1.67" class="g">Requested</text><text x="19.038" y="1.67" class="g">formats</text><text x="27.054" y="1.67" class="g">are</text><text x="31.062" y="1.67" class="g">incompatible</text><text x="44.088" y="1.67" class="g">for</text><text x="48.096" y="1.67" class="g">merge</text><text x="54.108" y="1.67" class="g">and</text><text x="58.116" y="1.67" class="g">will</text><text x="63.126" y="1.67" class="g">be</text><text x="66.132" y="1.67" class="g">merged</text><text x="73.146" y="1.67" class="g">into</text><text x="78.156" y="1.67" class="g">mkv.</text></symbol><symbol id="29"><text y="1.67" class="g">[download]</text><text x="11.022" y="1.67" class="g">Destination:</text><text x="24.048" y="1.67" class="g">Alan</text><text x="29.058" y="1.67" class="g">Walker</text><text x="36.072" y="1.67" class="g">-</text><text x="38.076" y="1.67" class="g">Alone-1-xGerv5FOk.f133.mp4</text></symbol><symbol id="30"><text y="1.67" class="g">[download]</text><text x="11.022" y="1.67" class="g">100%</text><text x="16.032" y="1.67" class="g">of</text><text x="19.038" y="1.67" class="g">2.88MiB</text><text x="27.054" y="1.67" class="g">in</text><text x="30.06" y="1.67" class="g">00:03</text></symbol><symbol id="31"><text y="1.67" class="g">Done</text><text x="5.01" y="1.67" class="g">downloading,</text><text x="18.036" y="1.67" class="g">now</text><text x="22.044" y="1.67" class="g">converting</text><text x="33.066" y="1.67" class="g">...</text></symbol><symbol id="32"><text y="1.67" class="g">[download]</text><text x="11.022" y="1.67" class="g">Destination:</text><text x="24.048" y="1.67" class="g">Alan</text><text x="29.058" y="1.67" class="g">Walker</text><text x="36.072" y="1.67" class="g">-</text><text x="38.076" y="1.67" class="g">Alone-1-xGerv5FOk.f251.webm</text></symbol><symbol id="33"><text y="1.67" class="g">[download]</text><text x="11.022" y="1.67" class="g">100%</text><text x="16.032" y="1.67" class="g">of</text><text x="19.038" y="1.67" class="g">2.55MiB</text><text x="27.054" y="1.67" class="g">in</text><text x="30.06" y="1.67" class="g">00:03</text></symbol><symbol id="34"><text y="1.67" class="g">[ffmpeg]</text><text x="9.018" y="1.67" class="g">Merging</text><text x="17.034" y="1.67" class="g">formats</text><text x="25.05" y="1.67" class="g">into</text><text x="30.06" y="1.67" class="g">&quot;Alan</text><text x="36.072" y="1.67" class="g">Walker</text><text x="43.086" y="1.67" class="g">-</text><text x="45.09" y="1.67" class="g">Alone-1-xGerv5FOk.mkv&quot;</text></symbol><symbol id="35"><text y="1.67" class="g">Deleting</text><text x="9.018" y="1.67" class="g">original</text><text x="18.036" y="1.67" class="g">file</text><text x="23.046" y="1.67" class="g">Alan</text><text x="28.056" y="1.67" class="g">Walker</text><text x="35.07" y="1.67" class="g">-</text><text x="37.074" y="1.67" class="g">Alone-1-xGerv5FOk.f133.mp4</text><text x="64.128" y="1.67" class="g">(pass</text><text x="70.14" y="1.67" class="g">-k</text><text x="73.146" y="1.67" class="g">to</text><text x="76.152" y="1.67" class="g">keep)</text></symbol><symbol id="36"><text y="1.67" class="g">Deleting</text><text x="9.018" y="1.67" class="g">original</text><text x="18.036" y="1.67" class="g">file</text><text x="23.046" y="1.67" class="g">Alan</text><text x="28.056" y="1.67" class="g">Walker</text><text x="35.07" y="1.67" class="g">-</text><text x="37.074" y="1.67" class="g">Alone-1-xGerv5FOk.f251.webm</text><text x="65.13" y="1.67" class="g">(pass</text><text x="71.142" y="1.67" class="g">-k</text><text x="74.148" y="1.67" class="g">to</text><text x="77.154" y="1.67" class="g">keep)</text></symbol><symbol id="37"><text y="1.67" class="f">xvishaldongre@dell</text><text x="18.036" y="1.67" class="g">:</text><text x="19.038" y="1.67" class="h">~</text><text x="20.04" y="1.67" class="g">$</text><text x="22.044" y="1.67" class="g">exit</text></symbol><symbol id="a"><path fill="transparent" d="M0 0h87v21H0z"/></symbol><symbol id="b"><path fill="#6f7683" d="M0 0h1.102v2.171H0z"/></symbol></defs><path class="a" d="M0 0h87v45.591H0z"/><g style="animation-duration:27.74842s;animation-iteration-count:infinite;animation-name:o;animation-timing-function:steps(1,end)"><svg width="6873"><svg><use xlink:href="#a"/><use xlink:href="#b" x="-.004"/></svg><svg x="87"><use xlink:href="#a"/><use xlink:href="#b" x="21.996"/><use xlink:href="#1"/></svg><svg x="174"><use xlink:href="#a"/><use xlink:href="#b" x="22.996"/><text y="1.67" class="f">xvishaldongre@dell</text><text x="18.036" y="1.67" class="g">:</text><text x="19.038" y="1.67" class="h">~</text><text x="20.04" y="1.67" class="g">$</text><text x="22.044" y="1.67" class="g">y</text></svg><svg x="261"><use xlink:href="#a"/><use xlink:href="#b" x="23.996"/><text y="1.67" class="f">xvishaldongre@dell</text><text x="18.036" y="1.67" class="g">:</text><text x="19.038" y="1.67" class="h">~</text><text x="20.04" y="1.67" class="g">$</text><text x="22.044" y="1.67" class="g">yo</text></svg><svg x="348"><use xlink:href="#a"/><use xlink:href="#b" x="24.996"/><text y="1.67" class="f">xvishaldongre@dell</text><text x="18.036" y="1.67" class="g">:</text><text x="19.038" y="1.67" class="h">~</text><text x="20.04" y="1.67" class="g">$</text><text x="22.044" y="1.67" class="g">you</text></svg><svg x="435"><use xlink:href="#a"/><use xlink:href="#b" x="25.996"/><text y="1.67" class="f">xvishaldongre@dell</text><text x="18.036" y="1.67" class="g">:</text><text x="19.038" y="1.67" class="h">~</text><text x="20.04" y="1.67" class="g">$</text><text x="22.044" y="1.67" class="g">you-</text></svg><svg x="522"><use xlink:href="#a"/><use xlink:href="#b" x="26.996"/><text y="1.67" class="f">xvishaldongre@dell</text><text x="18.036" y="1.67" class="g">:</text><text x="19.038" y="1.67" class="h">~</text><text x="20.04" y="1.67" class="g">$</text><text x="22.044" y="1.67" class="g">you-d</text></svg><svg x="609"><use xlink:href="#a"/><use xlink:href="#b" x="28.996"/><use xlink:href="#2"/></svg><svg x="696"><use xlink:href="#a"/><use xlink:href="#b" x="-.004" y="2.146"/><use xlink:href="#2"/></svg><svg x="783"><use xlink:href="#a"/><use xlink:href="#b" x="-.004" y="2.146"/><use xlink:href="#2"/></svg><svg x="870"><use xlink:href="#a"/><use xlink:href="#b" x="-.004" y="2.146"/><use xlink:href="#2"/></svg><svg x="957"><use xlink:href="#a"/><use xlink:href="#2"/><use xlink:href="#3" y="2.171"/><use xlink:href="#4" y="4.342"/><use xlink:href="#5" y="6.513"/><use xlink:href="#6" y="8.684"/><use xlink:href="#7" y="10.855"/></svg><svg x="1044"><use xlink:href="#a"/><use xlink:href="#2"/><use xlink:href="#3" y="2.171"/><use xlink:href="#4" y="4.342"/><use xlink:href="#5" y="6.513"/><use xlink:href="#6" y="8.684"/><use xlink:href="#7" y="10.855"/></svg><svg x="1131"><use xlink:href="#a"/><use xlink:href="#2"/><use xlink:href="#3" y="2.171"/><use xlink:href="#8" y="4.342"/><use xlink:href="#9" y="6.513"/><use xlink:href="#6" y="8.684"/><use xlink:href="#7" y="10.855"/></svg><svg x="1218"><use xlink:href="#a"/><use xlink:href="#2"/><use xlink:href="#3" y="2.171"/><use xlink:href="#8" y="4.342"/><use xlink:href="#5" y="6.513"/><use xlink:href="#10" y="8.684"/><use xlink:href="#7" y="10.855"/></svg><svg x="1305"><use xlink:href="#a"/><use xlink:href="#2"/><use xlink:href="#3" y="2.171"/><use xlink:href="#8" y="4.342"/><use xlink:href="#5" y="6.513"/><use xlink:href="#6" y="8.684"/><text x="1.002" y="12.525" class="k">❯</text><text x="3.006" y="12.525" class="g">Search</text><text x="10.02" y="12.525" class="g">Playlist</text></svg><svg x="1392"><use xlink:href="#a"/><use xlink:href="#2"/><use xlink:href="#3" y="2.171"/><use xlink:href="#8" y="4.342"/><use xlink:href="#5" y="6.513"/><use xlink:href="#10" y="8.684"/><use xlink:href="#7" y="10.855"/></svg><svg x="1479"><use xlink:href="#a"/><use xlink:href="#2"/><use xlink:href="#3" y="2.171"/><use xlink:href="#8" y="4.342"/><use xlink:href="#9" y="6.513"/><use xlink:href="#6" y="8.684"/><use xlink:href="#7" y="10.855"/></svg><svg x="1566"><use xlink:href="#a"/><use xlink:href="#2"/><use xlink:href="#3" y="2.171"/><use xlink:href="#4" y="4.342"/><use xlink:href="#5" y="6.513"/><use xlink:href="#6" y="8.684"/><use xlink:href="#7" y="10.855"/></svg><svg x="1653"><use xlink:href="#a"/><use xlink:href="#b" x="-.004" y="4.317"/><use xlink:href="#2"/><use xlink:href="#11" y="2.171"/></svg><svg x="1740"><use xlink:href="#a"/><use xlink:href="#b" x="-.004" y="4.317"/><use xlink:href="#2"/><use xlink:href="#11" y="2.171"/></svg><svg x="1827"><use xlink:href="#a"/><use xlink:href="#b" x="-.004" y="4.317"/><use xlink:href="#2"/><use xlink:href="#11" y="2.171"/></svg><svg x="1914"><use xlink:href="#a"/><use xlink:href="#2"/><use xlink:href="#11" y="2.171"/><use xlink:href="#12" y="4.342"/><use xlink:href="#13" y="6.513"/><use xlink:href="#14" y="8.684"/><use xlink:href="#15" y="10.855"/></svg><svg x="2001"><use xlink:href="#a"/><use xlink:href="#2"/><use xlink:href="#11" y="2.171"/><use xlink:href="#12" y="4.342"/><use xlink:href="#13" y="6.513"/><use xlink:href="#14" y="8.684"/><use xlink:href="#15" y="10.855"/></svg><svg x="2088"><use xlink:href="#a"/><use xlink:href="#2"/><use xlink:href="#11" y="2.171"/><use xlink:href="#12" y="4.342"/><use xlink:href="#16" y="6.513"/><text x="1.002" y="10.354" class="k">❯</text><text x="3.006" y="10.354" class="g">Audio</text><text x="9.018" y="10.354" class="g">only</text><use xlink:href="#15" y="10.855"/></svg><svg x="2175"><use xlink:href="#a"/><use xlink:href="#2"/><use xlink:href="#11" y="2.171"/><use xlink:href="#12" y="4.342"/><use xlink:href="#16" y="6.513"/><use xlink:href="#14" y="8.684"/><text x="1.002" y="12.525" class="k">❯</text><text x="3.006" y="12.525" class="g">Video</text><text x="9.018" y="12.525" class="g">(Really!</text><text x="18.036" y="12.525" class="g">Without</text><text x="26.052" y="12.525" class="g">audio)</text></svg><svg x="2262"><use xlink:href="#a"/><use xlink:href="#2"/><use xlink:href="#11" y="2.171"/><use xlink:href="#12" y="4.342"/><use xlink:href="#13" y="6.513"/><use xlink:href="#14" y="8.684"/><use xlink:href="#15" y="10.855"/></svg><svg x="2349"><use xlink:href="#a"/><use xlink:href="#b" x="-.004" y="6.488"/><use xlink:href="#2"/><use xlink:href="#11" y="2.171"/><use xlink:href="#17" y="4.342"/></svg><svg x="2436"><use xlink:href="#a"/><use xlink:href="#b" x="-.004" y="6.488"/><use xlink:href="#2"/><use xlink:href="#11" y="2.171"/><use xlink:href="#17" y="4.342"/></svg><svg x="2523"><use xlink:href="#a"/><use xlink:href="#b" x="-.004" y="6.488"/><use xlink:href="#2"/><use xlink:href="#11" y="2.171"/><use xlink:href="#17" y="4.342"/></svg><svg x="2610"><use xlink:href="#a"/><use xlink:href="#2"/><use xlink:href="#11" y="2.171"/><use xlink:href="#17" y="4.342"/><use xlink:href="#18" y="6.513"/><use xlink:href="#19" y="8.684"/><use xlink:href="#20" y="10.855"/><use xlink:href="#21" y="13.026"/><use xlink:href="#22" y="15.197"/><use xlink:href="#23" y="17.368"/><use xlink:href="#24" y="19.539"/></svg><svg x="2697"><use xlink:href="#a"/><use xlink:href="#2"/><use xlink:href="#11" y="2.171"/><use xlink:href="#17" y="4.342"/><use xlink:href="#18" y="6.513"/><use xlink:href="#19" y="8.684"/><use xlink:href="#20" y="10.855"/><use xlink:href="#21" y="13.026"/><use xlink:href="#22" y="15.197"/><use xlink:href="#23" y="17.368"/><use xlink:href="#24" y="19.539"/></svg><svg x="2784"><use xlink:href="#a"/><use xlink:href="#2"/><use xlink:href="#11" y="2.171"/><use xlink:href="#17" y="4.342"/><use xlink:href="#18" y="6.513"/><use xlink:href="#25" y="8.684"/><text x="1.002" y="12.525" class="k">❯</text><text x="3.006" y="12.525" class="g">720p</text><text x="8.016" y="12.525" class="g">HD</text><use xlink:href="#21" y="13.026"/><use xlink:href="#22" y="15.197"/><use xlink:href="#23" y="17.368"/><use xlink:href="#24" y="19.539"/></svg><svg x="2871"><use xlink:href="#a"/><use xlink:href="#2"/><use xlink:href="#11" y="2.171"/><use xlink:href="#17" y="4.342"/><use xlink:href="#18" y="6.513"/><use xlink:href="#25" y="8.684"/><use xlink:href="#20" y="10.855"/><text x="1.002" y="14.696" class="k">❯</text><text x="3.006" y="14.696" class="g">480p</text><use xlink:href="#22" y="15.197"/><use xlink:href="#23" y="17.368"/><use xlink:href="#24" y="19.539"/></svg><svg x="2958"><use xlink:href="#a"/><use xlink:href="#2"/><use xlink:href="#11" y="2.171"/><use xlink:href="#17" y="4.342"/><use xlink:href="#18" y="6.513"/><use xlink:href="#25" y="8.684"/><use xlink:href="#20" y="10.855"/><use xlink:href="#21" y="13.026"/><text x="1.002" y="16.867" class="k">❯</text><text x="3.006" y="16.867" class="g">360p</text><use xlink:href="#23" y="17.368"/><use xlink:href="#24" y="19.539"/></svg><svg x="3045"><use xlink:href="#a"/><use xlink:href="#2"/><use xlink:href="#11" y="2.171"/><use xlink:href="#17" y="4.342"/><use xlink:href="#18" y="6.513"/><use xlink:href="#25" y="8.684"/><use xlink:href="#20" y="10.855"/><use xlink:href="#21" y="13.026"/><use xlink:href="#22" y="15.197"/><text x="1.002" y="19.038" class="k">❯</text><text x="3.006" y="19.038" class="g">240p</text><use xlink:href="#24" y="19.539"/></svg><svg x="3132"><use xlink:href="#a"/><use xlink:href="#b" x="-.004" y="8.659"/><use xlink:href="#2"/><use xlink:href="#11" y="2.171"/><use xlink:href="#17" y="4.342"/><use xlink:href="#26" y="6.513"/></svg><svg x="3219"><use xlink:href="#a"/><use xlink:href="#b" x="-.004" y="8.659"/><use xlink:href="#2"/><use xlink:href="#11" y="2.171"/><use xlink:href="#17" y="4.342"/><use xlink:href="#26" y="6.513"/></svg><svg x="3306"><use xlink:href="#a"/><use xlink:href="#b" x="-.004" y="10.83"/><use xlink:href="#2"/><use xlink:href="#11" y="2.171"/><use xlink:href="#17" y="4.342"/><use xlink:href="#26" y="6.513"/><use xlink:href="#27" y="8.684"/></svg><svg x="3393"><use xlink:href="#a"/><use xlink:href="#b" x="-.004" y="13.001"/><use xlink:href="#2"/><use xlink:href="#11" y="2.171"/><use xlink:href="#17" y="4.342"/><use xlink:href="#26" y="6.513"/><use xlink:href="#27" y="8.684"/><use xlink:href="#28" y="10.855"/></svg><svg x="3480"><use xlink:href="#a"/><use xlink:href="#b" x="-.004" y="15.172"/><use xlink:href="#2"/><use xlink:href="#11" y="2.171"/><use xlink:href="#17" y="4.342"/><use xlink:href="#26" y="6.513"/><use xlink:href="#27" y="8.684"/><use xlink:href="#28" y="10.855"/><use xlink:href="#29" y="13.026"/></svg><svg x="3567"><use xlink:href="#a"/><use xlink:href="#b" x="51.996" y="15.172"/><use xlink:href="#2"/><use xlink:href="#11" y="2.171"/><use xlink:href="#17" y="4.342"/><use xlink:href="#26" y="6.513"/><use xlink:href="#27" y="8.684"/><use xlink:href="#28" y="10.855"/><use xlink:href="#29" y="13.026"/><text y="16.867" class="g">[download]</text><text x="13.026" y="16.867" class="g">0.0%</text><text x="18.036" y="16.867" class="g">of</text><text x="21.042" y="16.867" class="g">2.88MiB</text><text x="29.058" y="16.867" class="g">at</text><text x="32.064" y="16.867" class="g">50.30KiB/s</text><text x="43.086" y="16.867" class="g">ETA</text><text x="47.094" y="16.867" class="g">00:58</text></svg><svg x="3654"><use xlink:href="#a"/><use xlink:href="#b" x="52.996" y="15.172"/><use xlink:href="#2"/><use xlink:href="#11" y="2.171"/><use xlink:href="#17" y="4.342"/><use xlink:href="#26" y="6.513"/><use xlink:href="#27" y="8.684"/><use xlink:href="#28" y="10.855"/><use xlink:href="#29" y="13.026"/><text y="16.867" class="g">[download]</text><text x="13.026" y="16.867" class="g">0.1%</text><text x="18.036" y="16.867" class="g">of</text><text x="21.042" y="16.867" class="g">2.88MiB</text><text x="29.058" y="16.867" class="g">at</text><text x="32.064" y="16.867" class="g">147.61KiB/s</text><text x="44.088" y="16.867" class="g">ETA</text><text x="48.096" y="16.867" class="g">00:19</text></svg><svg x="3741"><use xlink:href="#a"/><use xlink:href="#b" x="52.996" y="15.172"/><use xlink:href="#2"/><use xlink:href="#11" y="2.171"/><use xlink:href="#17" y="4.342"/><use xlink:href="#26" y="6.513"/><use xlink:href="#27" y="8.684"/><use xlink:href="#28" y="10.855"/><use xlink:href="#29" y="13.026"/><text y="16.867" class="g">[download]</text><text x="13.026" y="16.867" class="g">0.2%</text><text x="18.036" y="16.867" class="g">of</text><text x="21.042" y="16.867" class="g">2.88MiB</text><text x="29.058" y="16.867" class="g">at</text><text x="32.064" y="16.867" class="g">338.16KiB/s</text><text x="44.088" y="16.867" class="g">ETA</text><text x="48.096" y="16.867" class="g">00:08</text></svg><svg x="3828"><use xlink:href="#a"/><use xlink:href="#b" x="52.996" y="15.172"/><use xlink:href="#2"/><use xlink:href="#11" y="2.171"/><use xlink:href="#17" y="4.342"/><use xlink:href="#26" y="6.513"/><use xlink:href="#27" y="8.684"/><use xlink:href="#28" y="10.855"/><use xlink:href="#29" y="13.026"/><text y="16.867" class="g">[download]</text><text x="13.026" y="16.867" class="g">0.5%</text><text x="18.036" y="16.867" class="g">of</text><text x="21.042" y="16.867" class="g">2.88MiB</text><text x="29.058" y="16.867" class="g">at</text><text x="32.064" y="16.867" class="g">709.47KiB/s</text><text x="44.088" y="16.867" class="g">ETA</text><text x="48.096" y="16.867" class="g">00:04</text></svg><svg x="3915"><use xlink:href="#a"/><use xlink:href="#b" x="52.996" y="15.172"/><use xlink:href="#2"/><use xlink:href="#11" y="2.171"/><use xlink:href="#17" y="4.342"/><use xlink:href="#26" y="6.513"/><use xlink:href="#27" y="8.684"/><use xlink:href="#28" y="10.855"/><use xlink:href="#29" y="13.026"/><text y="16.867" class="g">[download]</text><text x="13.026" y="16.867" class="g">1.1%</text><text x="18.036" y="16.867" class="g">of</text><text x="21.042" y="16.867" class="g">2.88MiB</text><text x="29.058" y="16.867" class="g">at</text><text x="32.064" y="16.867" class="g">382.44KiB/s</text><text x="44.088" y="16.867" class="g">ETA</text><text x="48.096" y="16.867" class="g">00:07</text></svg><svg x="4002"><use xlink:href="#a"/><use xlink:href="#b" x="52.996" y="15.172"/><use xlink:href="#2"/><use xlink:href="#11" y="2.171"/><use xlink:href="#17" y="4.342"/><use xlink:href="#26" y="6.513"/><use xlink:href="#27" y="8.684"/><use xlink:href="#28" y="10.855"/><use xlink:href="#29" y="13.026"/><text y="16.867" class="g">[download]</text><text x="13.026" y="16.867" class="g">2.1%</text><text x="18.036" y="16.867" class="g">of</text><text x="21.042" y="16.867" class="g">2.88MiB</text><text x="29.058" y="16.867" class="g">at</text><text x="32.064" y="16.867" class="g">525.08KiB/s</text><text x="44.088" y="16.867" class="g">ETA</text><text x="48.096" y="16.867" class="g">00:05</text></svg><svg x="4089"><use xlink:href="#a"/><use xlink:href="#b" x="52.996" y="15.172"/><use xlink:href="#2"/><use xlink:href="#11" y="2.171"/><use xlink:href="#17" y="4.342"/><use xlink:href="#26" y="6.513"/><use xlink:href="#27" y="8.684"/><use xlink:href="#28" y="10.855"/><use xlink:href="#29" y="13.026"/><text y="16.867" class="g">[download]</text><text x="13.026" y="16.867" class="g">4.3%</text><text x="18.036" y="16.867" class="g">of</text><text x="21.042" y="16.867" class="g">2.88MiB</text><text x="29.058" y="16.867" class="g">at</text><text x="32.064" y="16.867" class="g">692.90KiB/s</text><text x="44.088" y="16.867" class="g">ETA</text><text x="48.096" y="16.867" class="g">00:04</text></svg><svg x="4176"><use xlink:href="#a"/><use xlink:href="#b" x="52.996" y="15.172"/><use xlink:href="#2"/><use xlink:href="#11" y="2.171"/><use xlink:href="#17" y="4.342"/><use xlink:href="#26" y="6.513"/><use xlink:href="#27" y="8.684"/><use xlink:href="#28" y="10.855"/><use xlink:href="#29" y="13.026"/><text y="16.867" class="g">[download]</text><text x="13.026" y="16.867" class="g">8.6%</text><text x="18.036" y="16.867" class="g">of</text><text x="21.042" y="16.867" class="g">2.88MiB</text><text x="29.058" y="16.867" class="g">at</text><text x="32.064" y="16.867" class="g">728.36KiB/s</text><text x="44.088" y="16.867" class="g">ETA</text><text x="48.096" y="16.867" class="g">00:03</text></svg><svg x="4263"><use xlink:href="#a"/><use xlink:href="#b" x="52.996" y="15.172"/><use xlink:href="#2"/><use xlink:href="#11" y="2.171"/><use xlink:href="#17" y="4.342"/><use xlink:href="#26" y="6.513"/><use xlink:href="#27" y="8.684"/><use xlink:href="#28" y="10.855"/><use xlink:href="#29" y="13.026"/><text y="16.867" class="g">[download]</text><text x="12.024" y="16.867" class="g">17.3%</text><text x="18.036" y="16.867" class="g">of</text><text x="21.042" y="16.867" class="g">2.88MiB</text><text x="29.058" y="16.867" class="g">at</text><text x="32.064" y="16.867" class="g">704.11KiB/s</text><text x="44.088" y="16.867" class="g">ETA</text><text x="48.096" y="16.867" class="g">00:03</text></svg><svg x="4350"><use xlink:href="#a"/><use xlink:href="#b" x="52.996" y="15.172"/><use xlink:href="#2"/><use xlink:href="#11" y="2.171"/><use xlink:href="#17" y="4.342"/><use xlink:href="#26" y="6.513"/><use xlink:href="#27" y="8.684"/><use xlink:href="#28" y="10.855"/><use xlink:href="#29" y="13.026"/><text y="16.867" class="g">[download]</text><text x="12.024" y="16.867" class="g">34.7%</text><text x="18.036" y="16.867" class="g">of</text><text x="21.042" y="16.867" class="g">2.88MiB</text><text x="29.058" y="16.867" class="g">at</text><text x="32.064" y="16.867" class="g">850.44KiB/s</text><text x="44.088" y="16.867" class="g">ETA</text><text x="48.096" y="16.867" class="g">00:02</text></svg><svg x="4437"><use xlink:href="#a"/><use xlink:href="#b" x="52.996" y="15.172"/><use xlink:href="#2"/><use xlink:href="#11" y="2.171"/><use xlink:href="#17" y="4.342"/><use xlink:href="#26" y="6.513"/><use xlink:href="#27" y="8.684"/><use xlink:href="#28" y="10.855"/><use xlink:href="#29" y="13.026"/><text y="16.867" class="g">[download]</text><text x="12.024" y="16.867" class="g">69.4%</text><text x="18.036" y="16.867" class="g">of</text><text x="21.042" y="16.867" class="g">2.88MiB</text><text x="29.058" y="16.867" class="g">at</text><text x="32.064" y="16.867" class="g">966.77KiB/s</text><text x="44.088" y="16.867" class="g">ETA</text><text x="48.096" y="16.867" class="g">00:00</text></svg><svg x="4524"><use xlink:href="#a"/><use xlink:href="#b" x="53.996" y="15.172"/><use xlink:href="#2"/><use xlink:href="#11" y="2.171"/><use xlink:href="#17" y="4.342"/><use xlink:href="#26" y="6.513"/><use xlink:href="#27" y="8.684"/><use xlink:href="#28" y="10.855"/><use xlink:href="#29" y="13.026"/><text y="16.867" class="g">[download]</text><text x="11.022" y="16.867" class="g">100.0%</text><text x="18.036" y="16.867" class="g">of</text><text x="21.042" y="16.867" class="g">2.88MiB</text><text x="29.058" y="16.867" class="g">at</text><text x="32.064" y="16.867" class="g">1013.68KiB/s</text><text x="45.09" y="16.867" class="g">ETA</text><text x="49.098" y="16.867" class="g">00:00</text></svg><svg x="4611"><use xlink:href="#a"/><use xlink:href="#b" x="-.004" y="19.514"/><use xlink:href="#2"/><use xlink:href="#11" y="2.171"/><use xlink:href="#17" y="4.342"/><use xlink:href="#26" y="6.513"/><use xlink:href="#27" y="8.684"/><use xlink:href="#28" y="10.855"/><use xlink:href="#29" y="13.026"/><use xlink:href="#30" y="15.197"/><use xlink:href="#31" y="17.368"/></svg><svg x="4698"><use xlink:href="#a"/><use xlink:href="#b" x="-.004" y="21.685"/><use xlink:href="#2"/><use xlink:href="#11" y="2.171"/><use xlink:href="#17" y="4.342"/><use xlink:href="#26" y="6.513"/><use xlink:href="#27" y="8.684"/><use xlink:href="#28" y="10.855"/><use xlink:href="#29" y="13.026"/><use xlink:href="#30" y="15.197"/><use xlink:href="#31" y="17.368"/><use xlink:href="#32" y="19.539"/></svg><svg x="4785"><use xlink:href="#a"/><use xlink:href="#b" x="51.996" y="21.685"/><use xlink:href="#2"/><use xlink:href="#11" y="2.171"/><use xlink:href="#17" y="4.342"/><use xlink:href="#26" y="6.513"/><use xlink:href="#27" y="8.684"/><use xlink:href="#28" y="10.855"/><use xlink:href="#29" y="13.026"/><use xlink:href="#30" y="15.197"/><use xlink:href="#31" y="17.368"/><use xlink:href="#32" y="19.539"/><text y="23.38" class="g">[download]</text><text x="13.026" y="23.38" class="g">0.0%</text><text x="18.036" y="23.38" class="g">of</text><text x="21.042" y="23.38" class="g">2.55MiB</text><text x="29.058" y="23.38" class="g">at</text><text x="32.064" y="23.38" class="g">77.05KiB/s</text><text x="43.086" y="23.38" class="g">ETA</text><text x="47.094" y="23.38" class="g">00:33</text></svg><svg x="4872"><use xlink:href="#a"/><use xlink:href="#b" x="52.996" y="21.685"/><use xlink:href="#2"/><use xlink:href="#11" y="2.171"/><use xlink:href="#17" y="4.342"/><use xlink:href="#26" y="6.513"/><use xlink:href="#27" y="8.684"/><use xlink:href="#28" y="10.855"/><use xlink:href="#29" y="13.026"/><use xlink:href="#30" y="15.197"/><use xlink:href="#31" y="17.368"/><use xlink:href="#32" y="19.539"/><text y="23.38" class="g">[download]</text><text x="13.026" y="23.38" class="g">0.1%</text><text x="18.036" y="23.38" class="g">of</text><text x="21.042" y="23.38" class="g">2.55MiB</text><text x="29.058" y="23.38" class="g">at</text><text x="32.064" y="23.38" class="g">225.65KiB/s</text><text x="44.088" y="23.38" class="g">ETA</text><text x="48.096" y="23.38" class="g">00:11</text></svg><svg x="4959"><use xlink:href="#a"/><use xlink:href="#b" x="52.996" y="21.685"/><use xlink:href="#2"/><use xlink:href="#11" y="2.171"/><use xlink:href="#17" y="4.342"/><use xlink:href="#26" y="6.513"/><use xlink:href="#27" y="8.684"/><use xlink:href="#28" y="10.855"/><use xlink:href="#29" y="13.026"/><use xlink:href="#30" y="15.197"/><use xlink:href="#31" y="17.368"/><use xlink:href="#32" y="19.539"/><text y="23.38" class="g">[download]</text><text x="13.026" y="23.38" class="g">0.3%</text><text x="18.036" y="23.38" class="g">of</text><text x="21.042" y="23.38" class="g">2.55MiB</text><text x="29.058" y="23.38" class="g">at</text><text x="32.064" y="23.38" class="g">514.46KiB/s</text><text x="44.088" y="23.38" class="g">ETA</text><text x="48.096" y="23.38" class="g">00:05</text></svg><svg x="5046"><use xlink:href="#a"/><use xlink:href="#b" x="51.996" y="21.685"/><use xlink:href="#2"/><use xlink:href="#11" y="2.171"/><use xlink:href="#17" y="4.342"/><use xlink:href="#26" y="6.513"/><use xlink:href="#27" y="8.684"/><use xlink:href="#28" y="10.855"/><use xlink:href="#29" y="13.026"/><use xlink:href="#30" y="15.197"/><use xlink:href="#31" y="17.368"/><use xlink:href="#32" y="19.539"/><text y="23.38" class="g">[download]</text><text x="13.026" y="23.38" class="g">0.6%</text><text x="18.036" y="23.38" class="g">of</text><text x="21.042" y="23.38" class="g">2.55MiB</text><text x="29.058" y="23.38" class="g">at</text><text x="33.066" y="23.38" class="g">1.04MiB/s</text><text x="43.086" y="23.38" class="g">ETA</text><text x="47.094" y="23.38" class="g">00:02</text></svg><svg x="5133"><use xlink:href="#a"/><use xlink:href="#b" x="52.996" y="21.685"/><use xlink:href="#2"/><use xlink:href="#11" y="2.171"/><use xlink:href="#17" y="4.342"/><use xlink:href="#26" y="6.513"/><use xlink:href="#27" y="8.684"/><use xlink:href="#28" y="10.855"/><use xlink:href="#29" y="13.026"/><use xlink:href="#30" y="15.197"/><use xlink:href="#31" y="17.368"/><use xlink:href="#32" y="19.539"/><text y="23.38" class="g">[download]</text><text x="13.026" y="23.38" class="g">1.2%</text><text x="18.036" y="23.38" class="g">of</text><text x="21.042" y="23.38" class="g">2.55MiB</text><text x="29.058" y="23.38" class="g">at</text><text x="32.064" y="23.38" class="g">265.66KiB/s</text><text x="44.088" y="23.38" class="g">ETA</text><text x="48.096" y="23.38" class="g">00:09</text></svg><svg x="5220"><use xlink:href="#a"/><use xlink:href="#b" x="52.996" y="21.685"/><use xlink:href="#2"/><use xlink:href="#11" y="2.171"/><use xlink:href="#17" y="4.342"/><use xlink:href="#26" y="6.513"/><use xlink:href="#27" y="8.684"/><use xlink:href="#28" y="10.855"/><use xlink:href="#29" y="13.026"/><use xlink:href="#30" y="15.197"/><use xlink:href="#31" y="17.368"/><use xlink:href="#32" y="19.539"/><text y="23.38" class="g">[download]</text><text x="13.026" y="23.38" class="g">2.4%</text><text x="18.036" y="23.38" class="g">of</text><text x="21.042" y="23.38" class="g">2.55MiB</text><text x="29.058" y="23.38" class="g">at</text><text x="32.064" y="23.38" class="g">424.24KiB/s</text><text x="44.088" y="23.38" class="g">ETA</text><text x="48.096" y="23.38" class="g">00:06</text></svg><svg x="5307"><use xlink:href="#a"/><use xlink:href="#b" x="52.996" y="21.685"/><use xlink:href="#2"/><use xlink:href="#11" y="2.171"/><use xlink:href="#17" y="4.342"/><use xlink:href="#26" y="6.513"/><use xlink:href="#27" y="8.684"/><use xlink:href="#28" y="10.855"/><use xlink:href="#29" y="13.026"/><use xlink:href="#30" y="15.197"/><use xlink:href="#31" y="17.368"/><use xlink:href="#32" y="19.539"/><text y="23.38" class="g">[download]</text><text x="13.026" y="23.38" class="g">4.9%</text><text x="18.036" y="23.38" class="g">of</text><text x="21.042" y="23.38" class="g">2.55MiB</text><text x="29.058" y="23.38" class="g">at</text><text x="32.064" y="23.38" class="g">411.39KiB/s</text><text x="44.088" y="23.38" class="g">ETA</text><text x="48.096" y="23.38" class="g">00:06</text></svg><svg x="5394"><use xlink:href="#a"/><use xlink:href="#b" x="52.996" y="21.685"/><use xlink:href="#2"/><use xlink:href="#11" y="2.171"/><use xlink:href="#17" y="4.342"/><use xlink:href="#26" y="6.513"/><use xlink:href="#27" y="8.684"/><use xlink:href="#28" y="10.855"/><use xlink:href="#29" y="13.026"/><use xlink:href="#30" y="15.197"/><use xlink:href="#31" y="17.368"/><use xlink:href="#32" y="19.539"/><text y="23.38" class="g">[download]</text><text x="13.026" y="23.38" class="g">9.8%</text><text x="18.036" y="23.38" class="g">of</text><text x="21.042" y="23.38" class="g">2.55MiB</text><text x="29.058" y="23.38" class="g">at</text><text x="32.064" y="23.38" class="g">431.67KiB/s</text><text x="44.088" y="23.38" class="g">ETA</text><text x="48.096" y="23.38" class="g">00:05</text></svg><svg x="5481"><use xlink:href="#a"/><use xlink:href="#b" x="52.996" y="21.685"/><use xlink:href="#2"/><use xlink:href="#11" y="2.171"/><use xlink:href="#17" y="4.342"/><use xlink:href="#26" y="6.513"/><use xlink:href="#27" y="8.684"/><use xlink:href="#28" y="10.855"/><use xlink:href="#29" y="13.026"/><use xlink:href="#30" y="15.197"/><use xlink:href="#31" y="17.368"/><use xlink:href="#32" y="19.539"/><text y="23.38" class="g">[download]</text><text x="12.024" y="23.38" class="g">19.6%</text><text x="18.036" y="23.38" class="g">of</text><text x="21.042" y="23.38" class="g">2.55MiB</text><text x="29.058" y="23.38" class="g">at</text><text x="32.064" y="23.38" class="g">506.70KiB/s</text><text x="44.088" y="23.38" class="g">ETA</text><text x="48.096" y="23.38" class="g">00:04</text></svg><svg x="5568"><use xlink:href="#a"/><use xlink:href="#b" x="52.996" y="21.685"/><use xlink:href="#2"/><use xlink:href="#11" y="2.171"/><use xlink:href="#17" y="4.342"/><use xlink:href="#26" y="6.513"/><use xlink:href="#27" y="8.684"/><use xlink:href="#28" y="10.855"/><use xlink:href="#29" y="13.026"/><use xlink:href="#30" y="15.197"/><use xlink:href="#31" y="17.368"/><use xlink:href="#32" y="19.539"/><text y="23.38" class="g">[download]</text><text x="12.024" y="23.38" class="g">39.2%</text><text x="18.036" y="23.38" class="g">of</text><text x="21.042" y="23.38" class="g">2.55MiB</text><text x="29.058" y="23.38" class="g">at</text><text x="32.064" y="23.38" class="g">580.12KiB/s</text><text x="44.088" y="23.38" class="g">ETA</text><text x="48.096" y="23.38" class="g">00:02</text></svg><svg x="5655"><use xlink:href="#a"/><use xlink:href="#b" x="52.996" y="21.685"/><use xlink:href="#2"/><use xlink:href="#11" y="2.171"/><use xlink:href="#17" y="4.342"/><use xlink:href="#26" y="6.513"/><use xlink:href="#27" y="8.684"/><use xlink:href="#28" y="10.855"/><use xlink:href="#29" y="13.026"/><use xlink:href="#30" y="15.197"/><use xlink:href="#31" y="17.368"/><use xlink:href="#32" y="19.539"/><text y="23.38" class="g">[download]</text><text x="12.024" y="23.38" class="g">65.2%</text><text x="18.036" y="23.38" class="g">of</text><text x="21.042" y="23.38" class="g">2.55MiB</text><text x="29.058" y="23.38" class="g">at</text><text x="32.064" y="23.38" class="g">672.46KiB/s</text><text x="44.088" y="23.38" class="g">ETA</text><text x="48.096" y="23.38" class="g">00:01</text></svg><svg x="5742"><use xlink:href="#a"/><use xlink:href="#b" x="52.996" y="21.685"/><use xlink:href="#2"/><use xlink:href="#11" y="2.171"/><use xlink:href="#17" y="4.342"/><use xlink:href="#26" y="6.513"/><use xlink:href="#27" y="8.684"/><use xlink:href="#28" y="10.855"/><use xlink:href="#29" y="13.026"/><use xlink:href="#30" y="15.197"/><use xlink:href="#31" y="17.368"/><use xlink:href="#32" y="19.539"/><text y="23.38" class="g">[download]</text><text x="12.024" y="23.38" class="g">99.1%</text><text x="18.036" y="23.38" class="g">of</text><text x="21.042" y="23.38" class="g">2.55MiB</text><text x="29.058" y="23.38" class="g">at</text><text x="32.064" y="23.38" class="g">748.18KiB/s</text><text x="44.088" y="23.38" class="g">ETA</text><text x="48.096" y="23.38" class="g">00:00</text></svg><svg x="5829"><use xlink:href="#a"/><use xlink:href="#b" x="52.996" y="21.685"/><use xlink:href="#2"/><use xlink:href="#11" y="2.171"/><use xlink:href="#17" y="4.342"/><use xlink:href="#26" y="6.513"/><use xlink:href="#27" y="8.684"/><use xlink:href="#28" y="10.855"/><use xlink:href="#29" y="13.026"/><use xlink:href="#30" y="15.197"/><use xlink:href="#31" y="17.368"/><use xlink:href="#32" y="19.539"/><text y="23.38" class="g">[download]</text><text x="11.022" y="23.38" class="g">100.0%</text><text x="18.036" y="23.38" class="g">of</text><text x="21.042" y="23.38" class="g">2.55MiB</text><text x="29.058" y="23.38" class="g">at</text><text x="32.064" y="23.38" class="g">752.13KiB/s</text><text x="44.088" y="23.38" class="g">ETA</text><text x="48.096" y="23.38" class="g">00:00</text></svg><svg x="5916"><use xlink:href="#a"/><use xlink:href="#b" x="-.004" y="26.027"/><use xlink:href="#2"/><use xlink:href="#11" y="2.171"/><use xlink:href="#17" y="4.342"/><use xlink:href="#26" y="6.513"/><use xlink:href="#27" y="8.684"/><use xlink:href="#28" y="10.855"/><use xlink:href="#29" y="13.026"/><use xlink:href="#30" y="15.197"/><use xlink:href="#31" y="17.368"/><use xlink:href="#32" y="19.539"/><use xlink:href="#33" y="21.71"/><use xlink:href="#31" y="23.881"/></svg><svg x="6003"><use xlink:href="#a"/><use xlink:href="#b" x="-.004" y="28.198"/><use xlink:href="#2"/><use xlink:href="#11" y="2.171"/><use xlink:href="#17" y="4.342"/><use xlink:href="#26" y="6.513"/><use xlink:href="#27" y="8.684"/><use xlink:href="#28" y="10.855"/><use xlink:href="#29" y="13.026"/><use xlink:href="#30" y="15.197"/><use xlink:href="#31" y="17.368"/><use xlink:href="#32" y="19.539"/><use xlink:href="#33" y="21.71"/><use xlink:href="#31" y="23.881"/><use xlink:href="#34" y="26.052"/></svg><svg x="6090"><use xlink:href="#a"/><use xlink:href="#b" x="-.004" y="30.369"/><use xlink:href="#2"/><use xlink:href="#11" y="2.171"/><use xlink:href="#17" y="4.342"/><use xlink:href="#26" y="6.513"/><use xlink:href="#27" y="8.684"/><use xlink:href="#28" y="10.855"/><use xlink:href="#29" y="13.026"/><use xlink:href="#30" y="15.197"/><use xlink:href="#31" y="17.368"/><use xlink:href="#32" y="19.539"/><use xlink:href="#33" y="21.71"/><use xlink:href="#31" y="23.881"/><use xlink:href="#34" y="26.052"/><use xlink:href="#35" y="28.223"/></svg><svg x="6177"><use xlink:href="#a"/><use xlink:href="#b" x="-.004" y="32.54"/><use xlink:href="#2"/><use xlink:href="#11" y="2.171"/><use xlink:href="#17" y="4.342"/><use xlink:href="#26" y="6.513"/><use xlink:href="#27" y="8.684"/><use xlink:href="#28" y="10.855"/><use xlink:href="#29" y="13.026"/><use xlink:href="#30" y="15.197"/><use xlink:href="#31" y="17.368"/><use xlink:href="#32" y="19.539"/><use xlink:href="#33" y="21.71"/><use xlink:href="#31" y="23.881"/><use xlink:href="#34" y="26.052"/><use xlink:href="#35" y="28.223"/><use xlink:href="#36" y="30.394"/></svg><svg x="6264"><use xlink:href="#a"/><use xlink:href="#b" x="21.996" y="32.54"/><use xlink:href="#2"/><use xlink:href="#11" y="2.171"/><use xlink:href="#17" y="4.342"/><use xlink:href="#26" y="6.513"/><use xlink:href="#27" y="8.684"/><use xlink:href="#28" y="10.855"/><use xlink:href="#29" y="13.026"/><use xlink:href="#30" y="15.197"/><use xlink:href="#31" y="17.368"/><use xlink:href="#32" y="19.539"/><use xlink:href="#33" y="21.71"/><use xlink:href="#31" y="23.881"/><use xlink:href="#34" y="26.052"/><use xlink:href="#35" y="28.223"/><use xlink:href="#36" y="30.394"/><use xlink:href="#1" y="32.565"/></svg><svg x="6351"><use xlink:href="#a"/><use xlink:href="#b" x="22.996" y="32.54"/><use xlink:href="#2"/><use xlink:href="#11" y="2.171"/><use xlink:href="#17" y="4.342"/><use xlink:href="#26" y="6.513"/><use xlink:href="#27" y="8.684"/><use xlink:href="#28" y="10.855"/><use xlink:href="#29" y="13.026"/><use xlink:href="#30" y="15.197"/><use xlink:href="#31" y="17.368"/><use xlink:href="#32" y="19.539"/><use xlink:href="#33" y="21.71"/><use xlink:href="#31" y="23.881"/><use xlink:href="#34" y="26.052"/><use xlink:href="#35" y="28.223"/><use xlink:href="#36" y="30.394"/><text y="34.235" class="f">xvishaldongre@dell</text><text x="18.036" y="34.235" class="g">:</text><text x="19.038" y="34.235" class="h">~</text><text x="20.04" y="34.235" class="g">$</text><text x="22.044" y="34.235" class="g">e</text></svg><svg x="6438"><use xlink:href="#a"/><use xlink:href="#b" x="23.996" y="32.54"/><use xlink:href="#2"/><use xlink:href="#11" y="2.171"/><use xlink:href="#17" y="4.342"/><use xlink:href="#26" y="6.513"/><use xlink:href="#27" y="8.684"/><use xlink:href="#28" y="10.855"/><use xlink:href="#29" y="13.026"/><use xlink:href="#30" y="15.197"/><use xlink:href="#31" y="17.368"/><use xlink:href="#32" y="19.539"/><use xlink:href="#33" y="21.71"/><use xlink:href="#31" y="23.881"/><use xlink:href="#34" y="26.052"/><use xlink:href="#35" y="28.223"/><use xlink:href="#36" y="30.394"/><text y="34.235" class="f">xvishaldongre@dell</text><text x="18.036" y="34.235" class="g">:</text><text x="19.038" y="34.235" class="h">~</text><text x="20.04" y="34.235" class="g">$</text><text x="22.044" y="34.235" class="g">ex</text></svg><svg x="6525"><use xlink:href="#a"/><use xlink:href="#b" x="24.996" y="32.54"/><use xlink:href="#2"/><use xlink:href="#11" y="2.171"/><use xlink:href="#17" y="4.342"/><use xlink:href="#26" y="6.513"/><use xlink:href="#27" y="8.684"/><use xlink:href="#28" y="10.855"/><use xlink:href="#29" y="13.026"/><use xlink:href="#30" y="15.197"/><use xlink:href="#31" y="17.368"/><use xlink:href="#32" y="19.539"/><use xlink:href="#33" y="21.71"/><use xlink:href="#31" y="23.881"/><use xlink:href="#34" y="26.052"/><use xlink:href="#35" y="28.223"/><use xlink:href="#36" y="30.394"/><text y="34.235" class="f">xvishaldongre@dell</text><text x="18.036" y="34.235" class="g">:</text><text x="19.038" y="34.235" class="h">~</text><text x="20.04" y="34.235" class="g">$</text><text x="22.044" y="34.235" class="g">exi</text></svg><svg x="6612"><use xlink:href="#a"/><use xlink:href="#b" x="25.996" y="32.54"/><use xlink:href="#2"/><use xlink:href="#11" y="2.171"/><use xlink:href="#17" y="4.342"/><use xlink:href="#26" y="6.513"/><use xlink:href="#27" y="8.684"/><use xlink:href="#28" y="10.855"/><use xlink:href="#29" y="13.026"/><use xlink:href="#30" y="15.197"/><use xlink:href="#31" y="17.368"/><use xlink:href="#32" y="19.539"/><use xlink:href="#33" y="21.71"/><use xlink:href="#31" y="23.881"/><use xlink:href="#34" y="26.052"/><use xlink:href="#35" y="28.223"/><use xlink:href="#36" y="30.394"/><use xlink:href="#37" y="32.565"/></svg><svg x="6699"><use xlink:href="#a"/><use xlink:href="#b" x="-.004" y="34.711"/><use xlink:href="#2"/><use xlink:href="#11" y="2.171"/><use xlink:href="#17" y="4.342"/><use xlink:href="#26" y="6.513"/><use xlink:href="#27" y="8.684"/><use xlink:href="#28" y="10.855"/><use xlink:href="#29" y="13.026"/><use xlink:href="#30" y="15.197"/><use xlink:href="#31" y="17.368"/><use xlink:href="#32" y="19.539"/><use xlink:href="#33" y="21.71"/><use xlink:href="#31" y="23.881"/><use xlink:href="#34" y="26.052"/><use xlink:href="#35" y="28.223"/><use xlink:href="#36" y="30.394"/><use xlink:href="#37" y="32.565"/></svg><svg x="6786"><use xlink:href="#a"/><use xlink:href="#b" x="-.004" y="36.882"/><use xlink:href="#2"/><use xlink:href="#11" y="2.171"/><use xlink:href="#17" y="4.342"/><use xlink:href="#26" y="6.513"/><use xlink:href="#27" y="8.684"/><use xlink:href="#28" y="10.855"/><use xlink:href="#29" y="13.026"/><use xlink:href="#30" y="15.197"/><use xlink:href="#31" y="17.368"/><use xlink:href="#32" y="19.539"/><use xlink:href="#33" y="21.71"/><use xlink:href="#31" y="23.881"/><use xlink:href="#34" y="26.052"/><use xlink:href="#35" y="28.223"/><use xlink:href="#36" y="30.394"/><use xlink:href="#37" y="32.565"/><text y="36.406" class="g">exit</text></svg></svg></g></g></svg></svg>